<svg width="25" height="16" viewBox="0 0 25 16" fill="none" xmlns="http://www.w3.org/2000/svg">
<path fill-rule="evenodd" clip-rule="evenodd" d="M11.6069 0.121064C11.4953 0.0423303 11.3622 5.82959e-05 11.2258 0C11.0894 5.82959e-05 10.9563 0.0423303 10.8447 0.121064C10.733 0.199797 10.6483 0.311168 10.6019 0.440021L9.84525 2.53013L9.0885 0.440033C9.04212 0.31118 8.95735 0.199809 8.84571 0.121075C8.73408 0.0423417 8.601 6.97551e-05 8.4646 1.14592e-05C8.3282 6.97551e-05 8.19513 0.0423417 8.08349 0.121075C7.97186 0.199809 7.88708 0.31118 7.84071 0.440033L5.34514 7.33369H3.92489C3.9236 7.33369 3.9223 7.3337 3.921 7.3337H1.16372C0.987688 7.3337 0.818869 7.40394 0.694398 7.52898C0.569927 7.65401 0.5 7.82358 0.5 8.0004C0.5 8.17722 0.569927 8.3468 0.694398 8.47183C0.818869 8.59686 0.987688 8.6671 1.16372 8.6671H5.80973C5.8111 8.6671 5.81246 8.6671 5.81383 8.66709H8.57091C8.70716 8.66713 8.84011 8.62505 8.95173 8.54657C9.06334 8.46809 9.14821 8.35701 9.19481 8.2284L9.84521 6.43196L13.1504 15.5608C13.1969 15.6895 13.2818 15.8007 13.3934 15.8793C13.505 15.9579 13.638 16 13.7743 16C13.9106 16 14.0436 15.9579 14.1553 15.8793C14.2669 15.8007 14.3517 15.6895 14.3982 15.5608L15.1549 13.4707L15.9116 15.5608C15.9581 15.6895 16.043 15.8007 16.1546 15.8793C16.2662 15.9578 16.3992 16 16.5355 16C16.6718 16 16.8048 15.9578 16.9165 15.8793C17.0281 15.8007 17.1129 15.6895 17.1594 15.5608L19.655 8.66709L21.0752 8.6671C21.0765 8.6671 21.0778 8.6671 21.0791 8.66709H23.8364C24.0124 8.66709 24.1812 8.59685 24.3057 8.47182C24.4302 8.34679 24.5001 8.17721 24.5001 8.00039C24.5001 7.82357 24.4302 7.65399 24.3057 7.52896C24.1812 7.40393 24.0124 7.33369 23.8364 7.33369H19.1904C19.1888 7.33369 19.1873 7.33369 19.1857 7.3337H16.4292C16.2931 7.33356 16.1603 7.37544 16.0487 7.45367C15.9371 7.53191 15.8521 7.6427 15.8053 7.77106L15.1547 9.56838L11.8497 0.440021C11.8033 0.311168 11.7185 0.199797 11.6069 0.121064ZM15.8612 11.5196L16.5355 13.382L18.2421 8.6671H16.8938L15.8612 11.5196ZM14.4485 11.5196L11.2258 2.61879L10.5516 4.48096L13.7743 13.382L14.4485 11.5196ZM9.13893 4.48124L8.4646 2.61881L6.75756 7.33369H8.10631L9.13893 4.48124Z" fill="#E05274"/>
</svg>
